inDegrees=no
num_controls=7
num_derivatives=13
num_iterations=77
num_multipliers=7
num_parameters=0
num_slacks=7
num_states=26
objective=0.349745
objective_accelerations=0.034728
objective_balance=0.007584
objective_effort=0.038931
objective_height=0.265457
objective_ligament=0.003045
solver_duration=1008.946169
status=Solve_Succeeded
success=true
DataType=double
version=3
OpenSimVersion=4.5
endheader
time	/jointset/ground_pelvis/pelvis_tilt/value	/jointset/ground_pelvis/pelvis_tx/value	/jointset/ground_pelvis/pelvis_ty/value	/jointset/hip_l/hip_flexion_l/value	/jointset/hip_l/hip_adduction_l/value	/jointset/hip_l/hip_rotation_l/value	/jointset/back/lumbar_extension/value	/jointset/patellofemoral_l/patellar_flexion_l/value	/jointset/knee_l/knee_flexion_l/value	/jointset/knee_l/knee_adduction_l/value	/jointset/knee_l/knee_rotation_l/value	/jointset/ankle_l/ankle_angle_l/value	/jointset/subtalar_l/subtalar_angle_l/value	/jointset/ground_pelvis/pelvis_tilt/speed	/jointset/ground_pelvis/pelvis_tx/speed	/jointset/ground_pelvis/pelvis_ty/speed	/jointset/hip_l/hip_flexion_l/speed	/jointset/hip_l/hip_adduction_l/speed	/jointset/hip_l/hip_rotation_l/speed	/jointset/back/lumbar_extension/speed	/jointset/patellofemoral_l/patellar_flexion_l/speed	/jointset/knee_l/knee_flexion_l/speed	/jointset/knee_l/knee_adduction_l/speed	/jointset/knee_l/knee_rotation_l/speed	/jointset/ankle_l/ankle_angle_l/speed	/jointset/subtalar_l/subtalar_angle_l/speed	/forceset/tau_hip_flexion_l	/forceset/tau_hip_adduction_l	/forceset/tau_hip_rotation_l	/forceset/tau_knee_flexion_l	/forceset/tau_ankle_angle_l	/forceset/tau_subtalar_angle_l	/forceset/tau_lumbar_extension	lambda_cid13_p0	lambda_cid13_p1	lambda_cid13_p2	lambda_cid13_p3	lambda_cid13_p4	lambda_cid13_p5	lambda_cid14_p0	/jointset/ground_pelvis/pelvis_tilt/accel	/jointset/ground_pelvis/pelvis_tx/accel	/jointset/ground_pelvis/pelvis_ty/accel	/jointset/hip_l/hip_flexion_l/accel	/jointset/hip_l/hip_adduction_l/accel	/jointset/hip_l/hip_rotation_l/accel	/jointset/back/lumbar_extension/accel	/jointset/patellofemoral_l/patellar_flexion_l/accel	/jointset/knee_l/knee_flexion_l/accel	/jointset/knee_l/knee_adduction_l/accel	/jointset/knee_l/knee_rotation_l/accel	/jointset/ankle_l/ankle_angle_l/accel	/jointset/subtalar_l/subtalar_angle_l/accel	gamma_cid13_p0	gamma_cid13_p1	gamma_cid13_p2	gamma_cid13_p3	gamma_cid13_p4	gamma_cid13_p5	gamma_cid14_p0
1.5	-0.2510847837039056	-0.0416955751023836	0.5814034618431047	1.643134991421797	-0.2433144159503827	0.03032509227917989	-0.4205205038780657	1.547807091021607	1.54780709102164	0.08930795938824351	0.1744187636857434	0.389025768703294	0.1186641389089866	-0.04123262059451648	-0.02867298716126294	0.9805636522974428	-2.560719090003315	-0.03340877352720991	-0.3489469751937631	0.2627048096521901	-3.02076664515669	-3.020766645156686	-0.5158287835113868	0.0002241081103210569	-0.5616640249040457	-0.2448900240040053	-0.2397421203419552	0.02366842838669467	-0.02305436204939418	-0.4909904516607884	0.1163652286045697	0.01068964876026354	0.2588238809041667	-9.874117548264911	5.11238748013839	-10.3851134904721	4.9759690045133	-733.2650990592442	-56.47996443025208	-0.0417110054440331	1.710191035919979	0.9807780773261255	1.604219361872115	-5.88813598122717	-0.2303026385729307	-0.9964264424952596	2.839951681342006	-7.751604560082536	-7.751604560082411	-1.32112339993499	-0.04867546193029376	-4.05799302009476	-1.490647975612221	-7.058240135708992e-07	3.592662792273561e-06	4.552169711025911e-06	1.162192610384968e-06	2.762510852089157e-07	7.995981878029439e-06	-4.836924339283879e-07
1.51	-0.2514113013857613	-0.04193220038970349	0.5912859689201846	1.617237830380226	-0.2436611537205099	0.02677992964729562	-0.4177491771570925	1.517215726094286	1.51721572609429	0.08408888627659056	0.1744205584283054	0.3832055808044016	0.1161398432923748	-0.02402987223893905	-0.01855075474901085	0.995616608149262	-2.61835814083335	-0.03599125121950679	-0.3601694361303275	0.2917722019214634	-3.097141137367453	-3.097141137367449	-0.5279093650569361	0.0001503958590089918	-0.6023974936664412	-0.2599440903783518	-0.2361958191909715	0.0234335061701889	-0.0214023960443332	-0.4793919860732852	0.1170946300949787	0.01066620261748395	0.2553025431248414	-8.900021365064982	4.597041679023152	-9.897487054795068	3.39346375797081	-723.1044735416775	-55.77503026666436	-0.04201008250109726	1.731401542010617	1.043400193236502	1.407719145381771	-5.648623855799834	-0.2808448034142859	-1.197974077560719	2.971883106548993	-7.52548638758839	-7.525486387588386	-1.140029695377731	0.01422299254698162	-4.084535560630469	-1.510306353784067	-7.489510386310048e-07	3.967382132524933e-06	5.014900757169046e-06	1.243367609521913e-06	2.876153591104218e-07	8.42923728881637e-06	-5.100413052867033e-07
1.52	-0.2515645746227364	-0.04206451247888863	0.6013093826454917	1.590774911985971	-0.2440354411613313	0.02311997877438104	-0.4146808264920607	1.485871593277655	1.48587159327763	0.07875130651678053	0.1744218044682107	0.3769773558666214	0.1134655029349319	-0.006583731617996787	-0.007810347534310668	1.008744981942877	-2.673870560539714	-0.03891870766605238	-0.371904623399839	0.3221095984639013	-3.171320223018824	-3.17132022301882	-0.5395301131429996	0.0001143675788430962	-0.6432714326815776	-0.2748989721702273	-0.2326495180399897	0.02319858395368104	-0.01975043003927006	-0.467793520485782	0.1178240315853878	0.01064275647470149	0.2517812053455143	-7.946473848041833	4.081127159167212	-9.405017931623567	1.86675341771399	-713.2031962739659	-55.12198623720879	-0.04230589218343737	1.758869488992938	1.104413037815741	1.219302950231254	-5.462809756493183	-0.2992983894226724	-1.098971709084646	3.093952535974898	-7.31252324820417	-7.312523248204176	-1.229156708037843	-0.04113866770106348	-4.086087070642932	-1.470811059118038	-7.751057315780587e-07	4.298676639350204e-06	5.379051920369288e-06	1.307294547319455e-06	2.919516911128851e-07	8.665731505739063e-06	-5.197729145709033e-07
1.53	-0.2515424565409477	-0.04208642815795999	0.6114542354978711	1.563767528518275	-0.2444406614927133	0.01933946516587251	-0.4113030828624202	1.453796990018734	1.453796990018732	0.07330023019591514	0.1744231784143613	0.3703403251728417	0.1106425618391648	0.01101461432352886	0.003519046362272821	1.019880325154615	-2.727232479590477	-0.04216763954245215	-0.3843077191808569	0.3536255746757632	-3.243186492166513	-3.24318649216651	-0.5505943545075962	0.0001700785972687076	-0.6840937928261616	-0.2896183576513338	-0.2280039344660726	0.02264969438421875	-0.01829394466820814	-0.4555521481146699	0.1189299653192704	0.01064520505103595	0.2472583391097636	-6.787295722566828	3.503551155421105	-8.886249680769765	0.1886529881326576	-701.9914582335336	-54.47333984112356	-0.04259927076044367	1.761338469941832	1.161253223521208	1.008917928827362	-5.216913878560899	-0.3448880741787627	-1.327652608932035	3.208387245504737	-7.061486736947546	-7.061486736947811	-1.031294763806934	0.028880644620835	-4.074065564670896	-1.463294301693796	-7.832273216549952e-07	4.583832260660243e-06	5.638461957942706e-06	1.352895419943883e-06	2.888208348476155e-07	8.693166954181006e-06	-5.118486829013557e-07
1.54	-0.251344150735104	-0.04199223976647731	0.6217000953668046	1.53623771968023	-0.2448798106403457	0.01543158578029123	-0.4076045860543185	1.421016162470557	1.421016162470577	0.06774126407876743	0.1744251004022979	0.3632963198619548	0.1076742684867692	0.02865381319343815	0.01541046657649705	1.02894638525364	-2.778355634608962	-0.04570447091605857	-0.3973777788147407	0.3862602341561461	-3.312565080870058	-3.312565080870058	-0.5611080723976475	0.0002239759359531484	-0.7246663561029364	-0.3039694234959144	-0.223358350892156	0.02210080481476024	-0.01683745929717773	-0.4433107757435588	0.1200358990531544	0.01064765362737707	0.2427354728740126	-5.64630229401688	2.92763082080934	-8.366007965079332	-1.450037693961401	-690.9962841852084	-53.87120036362458	-0.04289042556513757	1.767040074669657	1.21681830134389	0.8054463276884996	-5.015056950037598	-0.3568782888639941	-1.232364479657802	3.317689189679093	-6.814987159375579	-6.814987159375624	-1.119052013128791	-0.04150140364929905	-4.036127697081095	-1.397147131812873	-7.723237499701375e-07	4.841480621494176e-06	5.778169571127923e-06	1.379982086899093e-06	2.898468360690335e-07	8.564691716340051e-06	-4.868236653431421e-07
1.55	-0.2509694199833362	-0.04177642727264583	0.6320260676579537	1.508207881640166	-0.2453557746532281	0.01138968921852443	-0.4035745485669245	1.387554507293124	1.387554507293121	0.06207948581770577	0.1744279997693148	0.3558484944804676	0.1045645714014737	0.04627453076003622	0.02783421217752739	1.035879695081017	-2.827214668696343	-0.04952396283112418	-0.4111061571669422	0.4199048172746969	-3.37928193121409	-3.379281931214089	-0.5711803487944953	0.0003666736587455807	-0.7647881929338378	-0.3178653336424812	-0.2177507731180131	0.02140673313321938	-0.01558104984703624	-0.4304258068462128	0.1213777964446908	0.01057815528241356	0.2373073741791354	-4.358195343440444	2.360488502808887	-7.850915133746232	-3.179621278961117	-678.7519622511453	-53.13384625883852	-0.04313483973266126	1.756860480259105	1.267757474538265	0.5820764045992447	-4.761797300032943	-0.4007258213738148	-1.458934244287432	3.411475965728276	-6.52734701223015	-6.527347012230134	-0.9409282280941457	0.04230718131633678	-3.983493117555509	-1.371613283765967	-7.394998832119094e-07	5.067435834388248e-06	5.779959173605001e-06	1.385737169061511e-06	2.956622600468523e-07	8.256580252999248e-06	-4.420955683914663e-07
1.56	-0.2504190274793835	-0.04143385636579301	0.6424103336662441	1.479701359126839	-0.2458711818209707	0.007207336926980576	-0.3992033386297879	1.353440221004188	1.353440221004163	0.05631906223765449	0.1744323564777746	0.3480027944423788	0.1013187551491751	0.06378616363080927	0.04076214918076258	1.040605128681872	-2.873692529261508	-0.05359310188803026	-0.425468924770588	0.4544947241046612	-3.443091303170649	-3.443091303170649	-0.5808371361965985	0.0005154442244508335	-0.8042412874231737	-0.3311932568965438	-0.2121431953438687	0.02071266145168393	-0.01432464039686858	-0.4175408379488654	0.1227196938362288	0.01050865693745861	0.2318792754842596	-3.084044005613885	1.795853924244057	-7.336304184548697	-4.891104689801785	-666.6612572451231	-52.44186197534035	-0.04316704308551348	1.745223135504639	1.317656581784861	0.363871082384242	-4.538822245594278	-0.4068077172320879	-1.359242329946659	3.506753931961798	-6.233491481881265	-6.233491481881416	-1.035954214179864	-0.04028683506674267	-3.902379228768026	-1.283549753312023	-6.929511617542511e-07	5.265626561943819e-06	5.690787571546935e-06	1.372077284836995e-06	3.109502450723094e-07	7.879994412484965e-06	-3.892534344891885e-07
1.57	-0.2496942523116424	-0.04095960460075119	0.6528306737203071	1.450742004194773	-0.2464283888652082	0.002878213393868991	-0.3944819771555473	1.318702921405074	1.318702921405076	0.05046382930372653	0.1744384321906019	0.3397665691832578	0.0979429071646403	0.08112135629966723	0.054158767908776	1.043076297943588	-2.917746144203257	-0.05786121496911088	-0.4404762460118347	0.4899021398606359	-3.503808492454915	-3.503808492454921	-0.5901256154025819	0.0006962150243404524	-0.8428212350459083	-0.3438229086561177	-0.2056011336595436	0.01973095408028454	-0.01325552047983093	-0.4043268284053536	0.1243497920856094	0.01045327042776297	0.2255740098411428	-1.656233231329298	1.194060571434941	-6.811048332839084	-6.673016458076631	-653.5426851272517	-51.76969062228299	-0.0430685350790186	1.72050019172054	1.361511592704222	0.1308229596923039	-4.273832623934979	-0.439636617301914	-1.589613875416486	3.576420764970594	-5.906756021152508	-5.906756021153283	-0.8622546188087271	0.04539904715148833	-3.808253728496898	-1.231163039408828	-6.292463719223053e-07	5.429111682826265e-06	5.48791446381994e-06	1.334148692628813e-06	3.380789314073143e-07	7.417815600503831e-06	-3.262687543986579e-07
1.58	-0.2487975586453858	-0.04034921723355041	0.6632641420893128	1.421355072812194	-0.247028841743008	-0.001604610722493084	-0.3894028044502359	1.283375265239226	1.283375265239257	0.04451831960873084	0.1744459436133525	0.3311500542080151	0.09444506463208403	0.09816986333429746	0.06798926961255229	1.043230791670386	-2.959207819363797	-0.06224226860042823	-0.4562090414211928	0.5260569703188274	-3.561162616517311	-3.561162616517322	-0.5988924884086106	0.00080258620961742	-0.8802992306474718	-0.3555921665008422	-0.1990590719752164	0.01874924670889208	-0.01218640056283001	-0.3911128188618426	0.125979890334992	0.01039788391807835	0.2192687441980277	-0.2373142355390089	0.5961846631967588	-6.289121891854663	-8.462474762025188	-640.5025424964595	-51.13936636171536	-0.04284102315784202	1.687886008659078	1.404433176937439	-0.09946402459939138	-4.020434289352682	-0.4293958272794171	-1.504337163568938	3.656236872405137	-5.560878437507254	-5.560878437507175	-0.9316329741889168	-0.05516675798929087	-3.681988824533796	-1.111470970342131	-5.800324721177561e-07	6.537454508100497e-06	5.88434994131151e-06	1.407025539031947e-06	4.315105331262323e-07	7.829984763689492e-06	-2.596564699405149e-07
